<?xml version="1.0" standalone="no"?><svg xmlns="http://www.w3.org/2000/svg" viewBox="0 0 1440 320"><path fill="#27284E" fill-opacity="1" d="M0,160L26.7,138.7C53.3,117,107,75,160,53.3C213.3,32,267,32,320,42.7C373.3,53,427,75,480,117.3C533.3,160,587,224,640,224C693.3,224,747,160,800,154.7C853.3,149,907,203,960,202.7C1013.3,203,1067,149,1120,144C1173.3,139,1227,181,1280,202.7C1333.3,224,1387,224,1413,224L1440,224L1440,320L1413.3,320C1386.7,320,1333,320,1280,320C1226.7,320,1173,320,1120,320C1066.7,320,1013,320,960,320C906.7,320,853,320,800,320C746.7,320,693,320,640,320C586.7,320,533,320,480,320C426.7,320,373,320,320,320C266.7,320,213,320,160,320C106.7,320,53,320,27,320L0,320Z"></path></svg>